<?xml version="1.0" encoding="utf-8"?>
<!-- Generator: Adobe Illustrator 23.1.0, SVG Export Plug-In . SVG Version: 6.00 Build 0)  -->
<svg version="1.1" id="Layer_1" xmlns="http://www.w3.org/2000/svg" xmlns:xlink="http://www.w3.org/1999/xlink" x="0px" y="0px"
	 viewBox="0 0 800 600" style="enable-background:new 0 0 800 600;" xml:space="preserve">
<style type="text/css">
	.st0{fill:#4792C6;}
	.st1{fill:#5BAAD6;}
	.st2{fill:#FFFFFF;}
	.st3{fill:#0E1727;}
	.st4{fill:#BB2026;}
	.st5{fill:#FED402;}
	.st6{fill:#FBB616;}
	.st7{fill:#FEE474;}
	.st8{fill:#ED2024;}
	.st9{clip-path:url(#SVGID_2_);}
	.st10{fill:#FEE88E;}
	.st11{fill:#F9B2A2;}
	.st12{fill:#054F97;}
	.st13{fill:#146CB2;}
	.st14{opacity:0.5;fill:#FFFFFF;}
	.st15{fill:#FCCDB3;}
	.st16{fill:#FDDCCC;}
	.st17{opacity:0.5;}
	.st18{fill:#2C80AF;}
	.st19{fill:#C6D86D;}
	.st20{fill:#AFBC51;}
	.st21{fill:#151E26;}
</style>
<rect class="st0" width="800" height="600"/>
<g>
	<path class="st1" d="M800,134.8c-43.6,11.6-93-3.7-133.9-25.7c-76.5-41.2-139.9-88.2-231-84c-60.1,2.8-119.3,23-168.3,57.9
		c-51.4,36.6-97,81.2-149.1,117.4c-35.1,24.4-75.9,44-117.8,48.2V600h223c4.3-8,8.5-16.1,12.5-24.3c16.7-34.4,30.9-71.5,59.2-97.2
		c41.9-38.1,104.7-42,160.9-34.3s111.6,24.9,168.2,21.4c40.7-2.5,80.8-16.1,114.7-38.8c21.4-14.3,41.1-32.5,61.6-48.7V134.8z"/>
</g>
<g>
	<path class="st2" d="M570.9,444.3h-13.4v21.3h-14.4V410h27.4v13.9H557v7.4h13.9V444.3z"/>
	<path class="st2" d="M593.5,408.6v57h-18v-57H593.5z"/>
	<path class="st2" d="M642.1,445.2c0,6.4-0.8,10.7-2.4,12.8c-3.6,5-9.5,7.6-17.6,7.6c-3.6,0-6.8-0.6-9.6-1.9
		c-2.8-1.3-5.2-3.1-7.1-5.6c-1.9-2.4-3.4-5.4-4.4-9c-1-3.5-1.5-7.6-1.5-12.1c0-13.5,4.8-22.3,14.5-26.4c2.9-1.3,6.1-2,9.3-2
		c5.7,0,11.5,1.7,17.3,5.1l-7.5,14c-1.6-2.2-4.8-3.3-9.8-3.3c-2.9,0-5,1.1-6.5,3.4c-1.5,2.3-2.2,5.4-2.2,9.4c0,2.1,0.2,4,0.6,5.8
		c0.4,1.8,1,3.3,1.7,4.5c0.7,1.3,1.6,2.2,2.7,2.9c1.1,0.7,2.3,1,3.7,1c4.1,0,6.1-1.5,6.1-4.6c0-0.3,0-0.5-0.1-0.6l-6.1-0.5l-0.9-14
		l18.7-0.5c0.3,2.3,0.6,4.6,0.7,6.8S642.1,442.9,642.1,445.2z"/>
	<path class="st2" d="M689,408.6v57h-17.3v-19.5h-8.3v19.5l-16.7-1.4v-55.1h15.3v21.7h11.5v-22.2H689z"/>
	<path class="st2" d="M732.5,425.3h-10.6v40.4H707v-39.4h-11.2l-1.3-15.8h38V425.3z"/>
	<path class="st2" d="M493.6,513.1c-2.1-1.4-4.2-2.1-6.3-2.1c-1.4,0-2.7,0.4-3.8,1.1c-1.2,0.7-2.2,1.7-3,3c-0.8,1.2-1.5,2.6-1.9,4.2
		c-0.5,1.6-0.7,3.2-0.7,4.9c0,1.5,0.2,2.9,0.7,4.2c0.5,1.3,1.1,2.4,2,3.4c0.9,1,1.9,1.7,3.1,2.2c1.2,0.5,2.5,0.8,4.1,0.8
		c3.1,0,5.8-0.9,7.8-2.7l4.2,14.3c-4.7,3.1-9.8,4.6-15.3,4.6c-14.2,0-21.3-8.9-21.3-26.7c0-4,0.5-7.8,1.6-11.5
		c1-3.7,2.6-6.9,4.5-9.7c2-2.8,4.4-5,7.3-6.7c2.9-1.7,6.1-2.5,9.8-2.5c1.7,0,3.3,0.1,4.9,0.3c1.6,0.2,3.1,0.5,4.3,0.8
		s2.3,0.8,3.2,1.3c0.8,0.5,1.3,1.1,1.5,1.7L493.6,513.1z"/>
	<path class="st2" d="M521.8,494.1c3.2,0,6.2,0.9,8.8,2.6c2.6,1.7,4.8,4.1,6.7,7.1c1.8,3,3.2,6.5,4.2,10.6c1,4.1,1.5,8.5,1.5,13.3
		c0,3.7-0.4,6.9-1.3,9.8c-0.9,2.9-2.2,5.4-3.8,7.4c-1.7,2-3.8,3.6-6.3,4.7c-2.5,1.1-5.3,1.6-8.5,1.6c-7,0-12.3-2.5-15.9-7.5
		c-3.6-5-5.4-12.5-5.4-22.4c0-4,0.4-7.7,1.3-11c0.9-3.4,2.2-6.2,3.9-8.6c1.7-2.4,3.8-4.2,6.3-5.6
		C515.7,494.8,518.5,494.1,521.8,494.1z M522.7,535.6c0.9,0,1.7-0.3,2.4-0.9c0.7-0.6,1.4-1.4,1.9-2.4c0.5-1,0.9-2.2,1.2-3.5
		c0.3-1.3,0.4-2.7,0.4-4.1c0-9.1-2.4-13.7-7.3-13.7c-3.4,0-5.1,3.5-5.1,10.5c0,2.1,0.1,4,0.4,5.7c0.3,1.7,0.7,3.2,1.3,4.5
		c0.6,1.2,1.2,2.2,2,2.9C520.8,535.3,521.7,535.6,522.7,535.6z"/>
	<path class="st2" d="M583.1,495l-11.8,56.1h-15l-13.1-55.3l14-1.8l5.9,25.4l4.9-25.4L583.1,495z"/>
	<path class="st2" d="M606.2,494.1v57h-18v-57H606.2z"/>
	<path class="st2" d="M620.6,494.1c8.6,0,15.2,2.6,19.6,7.7c4.4,5.1,6.6,12.5,6.6,22.1c0,8.8-2.2,15.6-6.6,20.3
		c-4.4,4.7-10.9,7-19.6,7c-1.5,0-2.8-0.1-4.1-0.2c-1.3-0.1-2.4-0.3-3.5-0.5l-2.8-55C613.2,494.5,616.7,494.1,620.6,494.1z
		 M625.5,533.3c1.1-0.3,2.2-0.9,3.1-1.6c0.9-0.7,1.7-1.6,2.3-2.6s1.1-2.1,1.5-3.3c0.4-1.2,0.5-2.4,0.5-3.6c0-1.2-0.2-2.4-0.6-3.6
		c-0.4-1.1-0.9-2.2-1.6-3.1c-0.7-0.9-1.5-1.7-2.5-2.3c-1-0.6-2-1-3.1-1.2L625.5,533.3z"/>
	<path class="st2" d="M692.4,551.2h-15v-33.2h-8.7v-10.8c2.2-0.8,5.2-5.1,8.9-13l14.8,0.4V551.2z"/>
	<path class="st2" d="M733.6,508.5c0,2.3-0.2,4.6-0.6,6.8s-1.1,4.6-2.1,6.8c-0.7,1.7-2.4,5-5.2,9.9c-2.8,4.9-6.5,11.3-11.3,19
		L701,548c0.6-0.6,2.4-3.1,5.4-7.4c3-4.3,7.1-10.4,12.4-18.4c-2.3,1-4.5,1.4-6.6,1.4c-2.1,0-4-0.4-5.8-1.1c-1.8-0.7-3.3-1.7-4.5-3
		c-1.3-1.3-2.2-2.7-2.9-4.4c-0.7-1.7-1-3.5-1-5.5c0-2,0.5-3.9,1.4-5.8c0.9-1.9,2.2-3.5,3.9-5c1.6-1.4,3.6-2.6,5.8-3.5
		c2.2-0.9,4.6-1.3,7.2-1.3c2.5,0,4.8,0.4,6.9,1.1c2.1,0.7,3.9,1.7,5.5,3c1.5,1.3,2.8,2.7,3.6,4.4c0.9,1.7,1.3,3.4,1.4,5.3V508.5z
		 M715.2,513.4c1.2,0,2.3-0.4,3.2-1.2c0.9-0.8,1.3-1.8,1.3-3c0-1.1-0.5-2.1-1.5-2.7c-1-0.7-2.1-1-3.4-1c-1.3,0-2.3,0.4-3.1,1.2
		c-0.8,0.8-1.2,1.8-1.2,3c0,1.1,0.5,2.1,1.4,2.7C712.7,513.1,713.8,513.4,715.2,513.4z"/>
</g>
<g>
	<defs>
		<rect id="SVGID_1_" width="800" height="600"/>
	</defs>
	<clipPath id="SVGID_2_">
		<use xlink:href="#SVGID_1_"  style="overflow:visible;"/>
	</clipPath>
	<g class="st9">
		<g>
			<g>
				<path class="st10" d="M331,221.7c-6-3.5-17-13.9-24.2-13.9c8.5,0.1,17.9,1.2,25.8-2.8c5-2.6,8.8-7.1,13.6-10.1
					c3.4-2.1,7.3-3.5,11.3-3.9c4.4-0.5,9.1,0.2,12.7,2.9c4.7,3.5,6.6,9.7,6.5,15.5c0,2.5-0.4,4.9-1.2,7.2c-3,8-11.9,12.6-20.4,12.8
					C346.5,229.6,338.3,226,331,221.7z"/>
			</g>
			<g>
				<path class="st11" d="M244.3,400c-22,0.8-43.8,3.1-65.6,6.1c-10.9,1.5-21.8,3.1-32.6,4.8c-1.4,0.2-24.4,4.4-24.3,3.4
					c5.4-38,14.3-75.5,26.4-111.9c6-17.8,16.4-28.8,35.6-30.5c8-0.7,16,0,24,0.7c11.1,0.9,22.1,1.9,33.2,2.8
					c9.5,0.8,19.6-0.2,28.8,2.2c18.4,4.7,32.9,18.8,45.8,31.8c2.8,2.8,5.8,6.1,6.1,10.1c0.3,4.8-3.8,9-8.3,10.5
					c-4.6,1.5-9.5,1-14.3,0.5c2.4,4.2,4.8,8.5,5.9,13.2s0.4,10.1-2.8,13.7c-6.2,7-17.5,4.4-26.2,1.2c2.7,10.1,4,20.6,4.1,31
					c0,1.5-0.1,3.2-1,4.4c-0.8,1.1-2.2,1.7-3.5,2.1C265.5,399.5,254.8,399.6,244.3,400z"/>
			</g>
			<g>
				<g>
					<g>
						<g>
							<rect x="257.2" y="212.3" class="st12" width="29.4" height="25.3"/>
							<path class="st13" d="M301.6,242.1v41h-59.4v-41c0-2.9,2.4-5.3,5.3-5.3h48.9C299.2,236.8,301.6,239.2,301.6,242.1z"/>
							<rect x="250.7" y="229.1" class="st13" width="42.4" height="25.3"/>
							<path class="st13" d="M319.9,207.3v9.9h-77.7v-4.7c0-2.9,2.4-5.3,5.3-5.3H319.9z"/>
							<path class="st12" d="M242.2,242.1v41h21.1c-8.4-14.8-13.5-31.6-16.6-46.2C244.2,237.2,242.2,239.4,242.2,242.1z"/>
						</g>
						<path class="st5" d="M212.8,289.4c3.1-6.7,9.8-10.9,17.1-10.9h42h42c7.3,0,14,4.2,17.1,10.9c41.2,89.5,26.6,162,17.7,190.7
							c-2.4,7.9-9.7,13.2-18,13.2h-58.9H213c-8.2,0-15.5-5.3-18-13.2C186.2,451.4,171.6,378.8,212.8,289.4z"/>
						<path class="st2" d="M230,317.4c2.2-4.7,6.9-7.7,12.1-7.7h29.8h29.8c5.2,0,9.9,3,12.1,7.7c29.3,63.5,18.9,115,12.6,135.3
							c-1.7,5.6-6.9,9.4-12.8,9.4h-41.8h-41.8c-5.8,0-11-3.8-12.8-9.4C211.1,432.4,200.7,380.9,230,317.4z"/>
						<path class="st6" d="M207.6,301.4c-34.7,83.9-21,151.3-12.5,178.7c2.4,7.9,9.7,13.2,18,13.2h20.8c-14-15.4-34.4-44.9-36-87.2
							C196.4,369.1,202.3,329,207.6,301.4z"/>
						<path class="st14" d="M319.9,290.5c-8.6-6-42.6-5.3-38.9,8.9c3.7,14.2,46.7,59.4,57.5,50.1
							C349.3,340.1,329.4,297.2,319.9,290.5z"/>
					</g>
				</g>
			</g>
			<g>
				<path class="st15" d="M224,428.1c-14.4,7.5-29.8,11.2-46,11.3c-12.1,0.1-32.6-6.8-43.3-0.2c-4.8,3-8.3,7.8-11.6,12.4
					C85.9,503.9,32.8,548-14.2,591.4c-37.6-21.8-62.2-64.6-62-108.1c0-2.5,0.1-5,1-7.2c1.5-3.8,4.9-6.4,8.1-8.9
					c30.6-23.3,59.9-48.4,87.6-75c12.7-12.1,25.1-23.7,34.5-38.5c7.7-12.1,16.6-23.3,29-31c16.7-10.3,34.9-21.2,50.1-33.7
					c16.4-13.6,21.6-29.1,28.6-48.6c9.5-26.6,29.1-39.9,51.6-55.3c8.5-5.8,15.6-9.2,25.9-7.7c12.2,1.8,24,6.8,36.3,7.3
					c3.3,0.1,6.8-0.5,10,0.5c4.2,1.3,7.4,5.4,7.6,9.8c0.7,19.1-34.5,16.2-45.8,16.5c-3.8,0.1-7.7,0.1-11.2,1.7
					c-4.6,2.1-7.6,6.7-10.3,11c-10.1,16-21.9,30.8-26.2,49.3c-4.4,18.8-6.8,38.1-7.2,57.4c-0.3,11.1,0.7,20.9,9.1,29.3
					c1.5,1.5,3.1,2.8,4.9,4.1c8.8,6.5,20,12,30.9,13.5c12.3,1.8,25.7-2.5,38.2-2.9c16.1-0.5,44.8,5.3,44,26.1
					c-0.2,4.2-1.8,8.8-5.4,10.9c-5.4,3.2-17.4,3.1-23.7,3.1c-11.8-0.1-23.9-1.8-35.6-1C244.6,414.8,233.8,423,224,428.1z"/>
			</g>
			<g>
				<path class="st16" d="M307.1,395.6c-6.6-0.5-13.2-0.2-19.8,0.8c-0.7,0.1-1.5,0.2-2.1,0.7c-0.8,0.6-1.3,1.6-1.5,2.5
					c-1.1,3.6-1.5,10.7,0.1,14.2c0.2,0.4,0.4,0.8,0.6,1.1c2.3,0.1,4.6,0.2,6.9,0.2c3.7,0,9.3,0.1,14.5-0.5c1.2-5.6,3-10.9,3-17.1
					c0-0.5,0-1-0.4-1.3C308.1,395.7,307.5,395.6,307.1,395.6z"/>
			</g>
			<g>
				<path class="st16" d="M262.6,188c2.3,2.2,5.6,2.8,8.7,3.3c2.6,0.4,5.3,0.8,7.9,1.3c0.7,0.1,1.6,0.2,2.2-0.2
					c0.7-0.5,0.9-1.5,1-2.3c0.2-1.8,0.4-3.6,0.5-5.5c-2.2-0.1-4.4,0.1-6.5,0c-5.2-0.2-10.3-1.2-15.4-2.5
					C260.4,184.1,261.1,186.5,262.6,188z"/>
			</g>
			<g>
				<path class="st11" d="M224,428.1c2.7-1.4,5.5-3.1,8.4-4.8c-30.1,6.9-64.1-10-94.4-0.7c-26.1,8-42.5,33-64.2,49.5
					c-9,6.8-19.1,12.2-29.8,16c-9.2,3.2-18.9,5.2-28.6,4.1c-15.4-1.7-29.2-11.2-38.9-23.3c-6.1-7.5-10.7-16-14.6-24.9
					c-9.5,7.8-19.2,15.5-29,23c-3.2,2.5-6.6,5.1-8.1,8.9c-0.9,2.3-1,4.8-1,7.2c-0.2,43.5,24.4,86.3,62,108.1
					c47-43.4,100.1-87.4,137.3-139.7c3.3-4.6,6.7-9.4,11.6-12.4c10.7-6.7,31.2,0.2,43.3,0.2C194.1,439.3,209.6,435.6,224,428.1z"/>
			</g>
			<g>
				<path class="st16" d="M176.4,354.2c-1.7-16.8,3.5-33.1,2.7-49.2c-0.6-12.5-7.7-8-14.6-0.5c-6.1,6.6-10.5,14.3-12,23.3
					c-2.3,13.4,2.1,27.9,11.6,37.7c1.4,1.5,3,2.9,5,3.2c3.1,0.4,6-2.2,7-5.2C177.1,360.6,176.7,357.3,176.4,354.2z"/>
			</g>
			<g class="st17">
				<path class="st2" d="M361.6,204c3.8,0.6,11.6,2.8,9.2-4c-1-3-5.5-5.7-8.4-5.8c-1.9-0.1-3.9,0.3-5.4,1.6
					c-1.4,1.3-2.1,3.5-1.3,5.2C356.8,203,359.4,203.6,361.6,204z"/>
			</g>
		</g>
		<g>
			<g>
				<path class="st0" d="M694.6,242.4c-0.9-1.4-2-2.7-3.2-3.9c-1.1-1.1-2.4-2.2-4-2.5c-1.6-0.3-3.4,0.3-4,1.8
					c-0.7,1.7,0.5,3.6,1.6,5c0-0.1-3.3,1.3-6.7,2.9c-2.7-8.4-7.7-16-14.5-21.8c1.5-2.7,3.2-5.9,3.8-7c0.1-0.1,0.1-0.3,0.2-0.3
					c0.8,0.6,1.7,1.3,2.8,1.4s2.3-0.7,2.2-1.8c0-0.5-0.3-0.9-0.6-1.3c-2.1-2.7-4.4-4.5-7.2-6.4c-0.7-0.5-1.5-1-2.3-1
					c-0.9,0-1.8,0.6-1.8,1.5c0,0.4,0.2,0.8,0.4,1.1c0.9,1.5,2.1,2.8,3.5,3.9c-1.5,2.4-3.3,4.7-5.1,6.8c-4-2.7-8.4-4.8-13.2-6.3
					c-3.7-1.1-7.5-1.8-11.2-2c-0.4-3.5-0.5-6.9,0.1-10.3c0.1-0.3,0.1-0.6,0.3-0.9c0.3-0.4,0.9-0.4,1.4-0.4c2.5,0,4.9-0.8,7-2.2
					c0.5-0.4,1-0.8,1.3-1.3c0.8-1.7-1-3.4-2.8-4.1c-4.1-1.5-8.6-0.4-12.8,0.8c-4.7,1.3-9,7.6-1.3,7.6c1.2,0,2.5-0.2,3.7-0.5
					c-0.4,3.8-1.1,7.6-1.7,11.3c-6,0.3-11.8,1.7-17.2,4.1c-0.7-1.4-1.4-2.7-2.2-4c1.2-0.1,2.3-1,2.6-2.2c0.3-1.2-0.3-2.5-1.3-3.1
					c-1.6-1-3.7-0.2-5.3,0.8c-0.9,0.6-1.8,1.3-2.6,2.1c-0.7,0.7-1.5,1.6-1.7,2.6c-0.2,1,0.2,2.2,1.2,2.6c1.1,0.5,2.3-0.3,3.3-1.1
					c0,0,0.9,2.1,1.8,4.3c-4.7,2.6-8.9,6.1-12.5,10.2c-2.2-1.1-4.4-2.3-6.4-3.7c0.7-1.2,1.2-2.6,1.4-4c0.1-0.3,0.1-0.7,0-1
					c-0.3-0.6-1.1-0.8-1.8-0.5c-0.6,0.3-1,0.9-1.4,1.5c-1.4,2.3-2.6,4.4-3.3,7c-0.1,0.4-0.2,0.8-0.1,1.2c0.3,0.8,1.4,1,2.2,0.6
					c0.8-0.4,1.2-1.2,1.6-1.9c0,0,0.1,0.1,0.2,0.2c0.8,0.6,2.9,2.4,4.9,3.9c-2.7,3.8-5,8-6.6,12.6c-3.9-0.4-7.9-0.8-9.4-0.9
					c-0.2,0-0.4,0-0.5-0.1c0.4-1.5,0.8-3.1,0.3-4.6c-0.5-1.5-2.2-2.7-3.6-2c-0.7,0.3-1.1,1-1.5,1.6c-2.5,4.3-3.6,8.6-4.7,13.5
					c-0.3,1.2-0.5,2.6-0.1,3.8c0.4,1.2,1.8,2.1,3,1.6c0.5-0.2,0.9-0.7,1.3-1.2c1.5-2.1,2.6-4.5,3.3-7c3.4,0.6,6.8,1.4,10.1,2.5
					c-1.5,8.2-0.8,16.3,1.8,23.8c-4.4,3.4-9,6.6-13.8,9.5c-1.9-1.5-9-7.9-7.6-0.3c0.7,3.9,3.6,6.9,6.4,9.7c3.1,3.1,10,3.6,6.5-2.5
					c-0.6-1-1.3-1.9-2.1-2.6c4.7-2.1,9.5-3.7,14.3-5.5c3.1,5.5,7.3,10.4,12.4,14.3c-1.6,3.7-3.3,7.3-5.3,10.8
					c-3.3,0-5.9-1.9-9.2-1.6c-0.6,0.1-1.2,0.2-1.7,0.6c-1.5,1.1-0.8,3.5,0.5,4.9c2.9,3.3,7.4,4.5,11.6,5.5c4.7,1.1,11.5-2.4,4.8-6.1
					c-1.1-0.6-2.3-1-3.5-1.3c2.3-3.4,4.9-6.5,7.4-9.7c3.3,2,6.9,3.6,10.8,4.8c3.2,1,6.4,1.6,9.6,1.9c-0.1,2.7-0.2,5.3-0.1,8
					c-1.7-0.8-3.8-0.3-5.1,1c-1.3,1.4-1.5,3.5-0.6,5.1c1.4,2.5,4.8,3,7.7,2.8c1.7-0.1,3.3-0.4,5-0.9c1.5-0.4,3.1-1,4.2-2.2
					s1.4-3.1,0.4-4.4c-1.1-1.4-3.3-1.3-5.2-1c0.1,0,0.5-4.2,0.9-8.3c5.2-0.3,10.2-1.5,15-3.4c0.8,2,1.6,3.9,1.9,4.6
					c0.1,0.1,0.1,0.3,0.1,0.3c-1,0.2-2,0.5-2.7,1.2s-0.8,2.1,0,2.6c0.4,0.3,0.9,0.3,1.4,0.3c3.2,0.1,5.9-0.5,9-1.3
					c0.8-0.2,1.6-0.5,2.1-1.1c0.5-0.6,0.6-1.7,0-2.2c-0.3-0.2-0.7-0.3-1.1-0.3c-1.6-0.2-3.3-0.1-4.9,0.2c-0.7-2.1-1.2-4.2-1.6-6.3
					c4-2.1,7.7-4.7,11-7.8c2.3,1.9,4.5,3.9,6.6,6c-1,2.3-5.4,10.7,1.7,7.4c3.6-1.7,5.8-5.3,7.7-8.7c2.2-3.8,0.9-10.6-4.1-5.7
					c-0.8,0.8-1.5,1.7-2,2.7c-1.8-2.3-3.5-4.6-5.2-7c3.6-4.6,6.4-9.9,8.2-15.8c0.6-1.8,1-3.7,1.3-5.5c1.7,0.3,3.4,0.6,5,1.4
					c0.2,0.1,0.3,0.2,0.4,0.3c0.1,0.2,0.1,0.5,0,0.8c-0.3,1.3-0.2,2.7,0.3,4c0.1,0.3,0.3,0.6,0.5,0.8c0.8,0.6,2-0.1,2.5-0.9
					c1.3-2,1.4-4.5,1.3-6.9c0-2.6-2.8-5.8-3.9-1.7c-0.2,0.7-0.2,1.3-0.2,2c-1.9-0.7-3.8-1.5-5.6-2.4c0.5-4.5,0.4-8.9-0.3-13.2
					c2.6-1.3,5.2-2.6,7.7-4.1c0.1,1.8,1.6,3.5,3.4,3.9c1.8,0.4,3.8-0.4,4.8-2C697.3,248,696.2,244.8,694.6,242.4z"/>
			</g>
			<g>
				<path class="st18" d="M712.6,80c-0.4-0.6-0.9-1.2-1.4-1.8c-0.5-0.5-1.1-1-1.8-1.2c-0.7-0.2-1.6,0.1-1.8,0.8
					c-0.3,0.8,0.2,1.6,0.7,2.3c0,0-1.5,0.6-3,1.3c-1.2-3.8-3.5-7.3-6.6-9.9c0.7-1.2,1.4-2.7,1.7-3.2c0-0.1,0.1-0.1,0.1-0.1
					c0.4,0.3,0.8,0.6,1.3,0.6c0.5,0,1-0.3,1-0.8c0-0.2-0.2-0.4-0.3-0.6c-0.9-1.2-2-2-3.3-2.9c-0.3-0.2-0.7-0.5-1.1-0.5
					c-0.4,0-0.8,0.3-0.8,0.7c0,0.2,0.1,0.3,0.2,0.5c0.4,0.7,1,1.3,1.6,1.8c-0.7,1.1-1.5,2.1-2.3,3.1c-1.8-1.2-3.8-2.2-6-2.9
					c-1.7-0.5-3.4-0.8-5.1-0.9c-0.2-1.6-0.2-3.1,0.1-4.7c0-0.1,0.1-0.3,0.2-0.4c0.2-0.2,0.4-0.2,0.6-0.2c1.1,0,2.2-0.4,3.2-1
					c0.2-0.2,0.5-0.3,0.6-0.6c0.3-0.8-0.5-1.6-1.2-1.9c-1.9-0.7-3.9-0.2-5.8,0.3c-2.1,0.6-4.1,3.4-0.6,3.5c0.6,0,1.1-0.1,1.7-0.2
					c-0.2,1.7-0.5,3.4-0.8,5.1c-2.7,0.1-5.4,0.8-7.8,1.8c-0.3-0.6-0.6-1.2-1-1.8c0.5,0,1-0.5,1.2-1c0.1-0.5-0.1-1.1-0.6-1.4
					c-0.7-0.4-1.7-0.1-2.4,0.4c-0.4,0.3-0.8,0.6-1.2,0.9c-0.3,0.3-0.7,0.7-0.8,1.2c-0.1,0.5,0.1,1,0.5,1.2c0.5,0.2,1.1-0.1,1.5-0.5
					c0,0,0.4,0.9,0.8,2c-2.1,1.2-4.1,2.8-5.7,4.6c-1-0.5-2-1-2.9-1.7c0.3-0.6,0.5-1.2,0.6-1.8c0-0.1,0-0.3,0-0.4
					c-0.1-0.3-0.5-0.4-0.8-0.2c-0.3,0.1-0.5,0.4-0.6,0.7c-0.6,1-1.2,2-1.5,3.2c0,0.2-0.1,0.4,0,0.5c0.1,0.4,0.6,0.5,1,0.3
					s0.6-0.5,0.7-0.9c0,0,0.1,0,0.1,0.1c0.3,0.3,1.3,1.1,2.2,1.8c-1.2,1.7-2.3,3.6-3,5.7c-1.8-0.2-3.6-0.4-4.3-0.4
					c-0.1,0-0.2,0-0.2,0c0.2-0.7,0.4-1.4,0.1-2.1c-0.2-0.7-1-1.2-1.7-0.9c-0.3,0.1-0.5,0.4-0.7,0.7c-1.1,2-1.6,3.9-2.1,6.1
					c-0.1,0.6-0.2,1.2,0,1.7c0.2,0.5,0.8,1,1.4,0.7c0.2-0.1,0.4-0.3,0.6-0.6c0.7-1,1.2-2,1.5-3.2c1.6,0.3,3.1,0.7,4.6,1.1
					c-0.7,3.7-0.3,7.4,0.8,10.8c-2,1.6-4.1,3-6.3,4.3c-0.9-0.7-4.1-3.6-3.5-0.1c0.3,1.8,1.6,3.1,2.9,4.4c1.4,1.4,4.5,1.6,3-1.1
					c-0.3-0.4-0.6-0.8-0.9-1.2c2.1-1,4.3-1.7,6.5-2.5c1.4,2.5,3.3,4.7,5.6,6.5c-0.7,1.7-1.5,3.3-2.4,4.9c-1.5,0-2.7-0.9-4.2-0.7
					c-0.3,0-0.6,0.1-0.8,0.3c-0.7,0.5-0.3,1.6,0.2,2.2c1.3,1.5,3.4,2,5.3,2.5c2.1,0.5,5.2-1.1,2.2-2.8c-0.5-0.3-1-0.5-1.6-0.6
					c1.1-1.5,2.2-3,3.4-4.4c1.5,0.9,3.2,1.6,4.9,2.2c1.4,0.4,2.9,0.7,4.3,0.8c-0.1,1.2-0.1,2.4-0.1,3.6c-0.8-0.4-1.7-0.2-2.3,0.5
					c-0.6,0.6-0.7,1.6-0.3,2.3c0.6,1.1,2.2,1.4,3.5,1.3c0.8-0.1,1.5-0.2,2.2-0.4c0.7-0.2,1.4-0.5,1.9-1c0.5-0.5,0.6-1.4,0.2-2
					c-0.5-0.7-1.5-0.6-2.3-0.5c0,0,0.2-1.9,0.4-3.8c2.4-0.1,4.6-0.7,6.8-1.5c0.4,0.9,0.7,1.7,0.9,2.1c0,0.1,0,0.1,0.1,0.1
					c-0.4,0.1-0.9,0.2-1.2,0.5c-0.3,0.3-0.4,0.9,0,1.2c0.2,0.1,0.4,0.1,0.6,0.2c1.4,0,2.7-0.2,4.1-0.6c0.4-0.1,0.7-0.2,1-0.5
					c0.2-0.3,0.3-0.8,0-1c-0.1-0.1-0.3-0.1-0.5-0.2c-0.7-0.1-1.5-0.1-2.2,0.1c-0.3-0.9-0.5-1.9-0.7-2.9c1.8-0.9,3.5-2.1,5-3.5
					c1,0.9,2,1.8,3,2.7c-0.4,1-2.4,4.8,0.8,3.4c1.6-0.8,2.6-2.4,3.5-3.9c1-1.7,0.4-4.8-1.8-2.6c-0.4,0.4-0.7,0.8-0.9,1.2
					c-0.8-1-1.6-2.1-2.3-3.2c1.6-2.1,2.9-4.5,3.7-7.2c0.3-0.8,0.4-1.7,0.6-2.5c0.8,0.1,1.6,0.3,2.3,0.6c0.1,0,0.1,0.1,0.2,0.1
					c0.1,0.1,0,0.2,0,0.4c-0.1,0.6-0.1,1.2,0.1,1.8c0.1,0.1,0.1,0.3,0.2,0.4c0.4,0.3,0.9,0,1.2-0.4c0.6-0.9,0.6-2,0.6-3.1
					c0-1.2-1.3-2.6-1.8-0.8c-0.1,0.3-0.1,0.6-0.1,0.9c-0.9-0.3-1.7-0.7-2.6-1.1c0.2-2,0.2-4.1-0.1-6c1.2-0.6,2.4-1.2,3.5-1.9
					c0.1,0.8,0.7,1.6,1.5,1.8c0.8,0.2,1.7-0.2,2.2-0.9C713.9,82.5,713.3,81.1,712.6,80z"/>
			</g>
			<g>
				<path class="st18" d="M805,182.8c-0.2-0.3-0.5-0.6-0.7-0.9c-0.3-0.3-0.5-0.5-0.9-0.6s-0.8,0.1-0.9,0.4c-0.2,0.4,0.1,0.8,0.4,1.1
					c0,0-0.7,0.3-1.5,0.6c-0.6-1.9-1.7-3.6-3.3-5c0.3-0.6,0.7-1.3,0.9-1.6c0,0,0-0.1,0-0.1c0.2,0.1,0.4,0.3,0.6,0.3s0.5-0.2,0.5-0.4
					c0-0.1-0.1-0.2-0.1-0.3c-0.5-0.6-1-1-1.6-1.5c-0.2-0.1-0.3-0.2-0.5-0.2c-0.2,0-0.4,0.1-0.4,0.3c0,0.1,0,0.2,0.1,0.3
					c0.2,0.3,0.5,0.6,0.8,0.9c-0.3,0.5-0.7,1.1-1.2,1.5c-0.9-0.6-1.9-1.1-3-1.4c-0.8-0.3-1.7-0.4-2.5-0.4c-0.1-0.8-0.1-1.6,0-2.3
					c0-0.1,0-0.1,0.1-0.2c0.1-0.1,0.2-0.1,0.3-0.1c0.6,0,1.1-0.2,1.6-0.5c0.1-0.1,0.2-0.2,0.3-0.3c0.2-0.4-0.2-0.8-0.6-0.9
					c-0.9-0.3-2-0.1-2.9,0.2c-1.1,0.3-2,1.7-0.3,1.7c0.3,0,0.6,0,0.8-0.1c-0.1,0.9-0.2,1.7-0.4,2.6c-1.4,0.1-2.7,0.4-3.9,0.9
					c-0.2-0.3-0.3-0.6-0.5-0.9c0.3,0,0.5-0.2,0.6-0.5c0.1-0.3-0.1-0.6-0.3-0.7c-0.4-0.2-0.8,0-1.2,0.2c-0.2,0.1-0.4,0.3-0.6,0.5
					c-0.2,0.2-0.3,0.4-0.4,0.6c0,0.2,0,0.5,0.3,0.6c0.3,0.1,0.5-0.1,0.7-0.2c0,0,0.2,0.5,0.4,1c-1.1,0.6-2,1.4-2.8,2.3
					c-0.5-0.2-1-0.5-1.5-0.8c0.2-0.3,0.3-0.6,0.3-0.9c0-0.1,0-0.1,0-0.2c-0.1-0.1-0.3-0.2-0.4-0.1c-0.1,0.1-0.2,0.2-0.3,0.3
					c-0.3,0.5-0.6,1-0.8,1.6c0,0.1,0,0.2,0,0.3c0.1,0.2,0.3,0.2,0.5,0.1s0.3-0.3,0.4-0.4c0,0,0,0,0.1,0c0.2,0.1,0.7,0.5,1.1,0.9
					c-0.6,0.9-1.1,1.8-1.5,2.9c-0.9-0.1-1.8-0.2-2.1-0.2c-0.1,0-0.1,0-0.1,0c0.1-0.3,0.2-0.7,0.1-1.1c-0.1-0.3-0.5-0.6-0.8-0.5
					c-0.2,0.1-0.2,0.2-0.3,0.4c-0.6,1-0.8,2-1.1,3.1c-0.1,0.3-0.1,0.6,0,0.9s0.4,0.5,0.7,0.4c0.1-0.1,0.2-0.2,0.3-0.3
					c0.3-0.5,0.6-1,0.8-1.6c0.8,0.1,1.5,0.3,2.3,0.6c-0.3,1.9-0.2,3.7,0.4,5.4c-1,0.8-2,1.5-3.1,2.2c-0.4-0.3-2-1.8-1.7-0.1
					c0.2,0.9,0.8,1.6,1.5,2.2c0.7,0.7,2.3,0.8,1.5-0.6c-0.1-0.2-0.3-0.4-0.5-0.6c1.1-0.5,2.2-0.8,3.2-1.2c0.7,1.2,1.7,2.4,2.8,3.2
					c-0.4,0.8-0.7,1.6-1.2,2.5c-0.8,0-1.3-0.4-2.1-0.4c-0.1,0-0.3,0-0.4,0.1c-0.3,0.3-0.2,0.8,0.1,1.1c0.7,0.7,1.7,1,2.6,1.2
					c1.1,0.3,2.6-0.5,1.1-1.4c-0.2-0.1-0.5-0.2-0.8-0.3c0.5-0.8,1.1-1.5,1.7-2.2c0.8,0.5,1.6,0.8,2.5,1.1c0.7,0.2,1.4,0.4,2.2,0.4
					c0,0.6,0,1.2,0,1.8c-0.4-0.2-0.9-0.1-1.2,0.2c-0.3,0.3-0.3,0.8-0.1,1.2c0.3,0.6,1.1,0.7,1.7,0.6c0.4,0,0.8-0.1,1.1-0.2
					c0.3-0.1,0.7-0.2,0.9-0.5c0.2-0.3,0.3-0.7,0.1-1c-0.3-0.3-0.8-0.3-1.2-0.2c0,0,0.1-0.9,0.2-1.9c1.2-0.1,2.3-0.3,3.4-0.8
					c0.2,0.5,0.4,0.9,0.4,1.1c0,0,0,0.1,0,0.1c-0.2,0.1-0.5,0.1-0.6,0.3s-0.2,0.5,0,0.6c0.1,0.1,0.2,0.1,0.3,0.1
					c0.7,0,1.3-0.1,2-0.3c0.2,0,0.4-0.1,0.5-0.2c0.1-0.1,0.1-0.4,0-0.5c-0.1-0.1-0.2-0.1-0.2-0.1c-0.4,0-0.8,0-1.1,0.1
					c-0.1-0.5-0.3-1-0.4-1.4c0.9-0.5,1.7-1.1,2.5-1.8c0.5,0.4,1,0.9,1.5,1.4c-0.2,0.5-1.2,2.4,0.4,1.7c0.8-0.4,1.3-1.2,1.8-2
					c0.5-0.9,0.2-2.4-0.9-1.3c-0.2,0.2-0.3,0.4-0.5,0.6c-0.4-0.5-0.8-1-1.2-1.6c0.8-1,1.4-2.2,1.9-3.6c0.1-0.4,0.2-0.8,0.3-1.3
					c0.4,0.1,0.8,0.1,1.1,0.3c0,0,0.1,0,0.1,0.1c0,0.1,0,0.1,0,0.2c-0.1,0.3-0.1,0.6,0.1,0.9c0,0.1,0.1,0.1,0.1,0.2
					c0.2,0.1,0.4,0,0.6-0.2c0.3-0.4,0.3-1,0.3-1.6c0-0.6-0.6-1.3-0.9-0.4c0,0.1-0.1,0.3,0,0.5c-0.4-0.2-0.9-0.3-1.3-0.5
					c0.1-1,0.1-2-0.1-3c0.6-0.3,1.2-0.6,1.8-0.9c0,0.4,0.4,0.8,0.8,0.9c0.4,0.1,0.9-0.1,1.1-0.4C805.6,184,805.4,183.3,805,182.8z"
					/>
			</g>
			<g>
				<g>
					<g>
						<g>
							<g>
								<path class="st19" d="M502.9,228.1c-13.1,5.9-26.6,9.6-39.6,15.4c1.5,1.4,2.9,3.1,3.9,4.9c6.5,11.4-6.5,10.5-12.3,4.6
									c-5.3-5.2-10.8-11-12.1-18.3c-2.6-14.4,10.7-2.4,14.3,0.5c11.1-6.6,21.6-14.1,31.5-22.3c4.4,4,12.3,7.8,14.6,13.4"/>
							</g>
							<g>
								<path class="st19" d="M560.6,123.3c1.6-15.8,5.6-30.7,7.2-46.4c-2.2,0.7-4.6,1-6.9,1c-14.5-0.1-6.4-12,2.4-14.3
									c7.9-2.1,16.5-4.2,24.2-1.4c3.3,1.2,6.6,4.5,5.2,7.7c-0.5,1.1-1.4,1.8-2.4,2.5c-3.8,2.7-8.5,4.2-13.1,4.2
									c-0.9,0-2,0-2.6,0.7c-0.4,0.4-0.5,1-0.6,1.6c-2.5,13.5,1.4,27.3,2.5,41c0.1,0.7,0.1,1.4-0.2,2c-0.4,0.7-1.1,1-1.8,1.3
									c-3.9,1.5-8.2,2.1-12.4,1.5"/>
							</g>
							<g>
								<path class="st19" d="M465.5,157.4c-0.5,0-0.8-0.1-1-0.1c0.8-2.9,1.5-5.9,0.6-8.7c-0.9-2.8-4.2-5.1-6.9-3.7
									c-1.3,0.6-2.1,1.9-2.8,3.1c-4.7,8.2-6.8,16.3-8.9,25.4c-0.5,2.3-1,4.9-0.2,7.1c0.8,2.3,3.5,4,5.7,3c1-0.5,1.7-1.4,2.4-2.3
									c2.8-4,4.9-8.5,6.2-13.2c12.7,2.3,25.1,6.1,36.8,11.4c1.1-6.2,2.6-12.3,4.5-18.4C502,161,472,158,465.5,157.4z"/>
							</g>
							<g>
								<path class="st19" d="M521,101.6c-0.2,0.1,7.3,16.6,7.9,18.4c2.5-1.6,5.2-2.9,7.8-4.2c-2.4-6-5.3-11.9-8.6-17.5
									c2.3-0.2,4.3-1.9,4.9-4.2c0.5-2.2-0.5-4.7-2.4-5.9c-3-1.9-7-0.4-10,1.6c-1.7,1.2-3.3,2.5-4.8,3.9c-1.4,1.4-2.7,3-3.1,4.9
									c-0.4,1.9,0.4,4.2,2.2,5C516.9,104.5,519.2,103,521,101.6z"/>
							</g>
							<g>
								<path class="st19" d="M634.7,106.7c0.2-0.3,0.3-0.5,0.3-0.6c1.6,1.2,3.3,2.5,5.3,2.6c2,0.2,4.3-1.3,4.1-3.3
									c-0.1-0.9-0.6-1.8-1.2-2.5c-3.9-5.1-8.4-8.5-13.5-12.2c-1.3-0.9-2.8-1.9-4.4-2s-3.4,1.1-3.4,2.8c0,0.8,0.4,1.4,0.8,2.1
									c1.8,2.8,4,5.3,6.6,7.3c-4.7,7.3-10.3,14.1-16.6,20c3.6,2.3,7,4.8,10.3,7.6C623,128.5,632.6,110.6,634.7,106.7z"/>
							</g>
							<g>
								<path class="st19" d="M486.5,127.9c-0.2-0.2-0.3-0.3-0.4-0.3c-0.8,1.4-1.7,2.9-3.1,3.6s-3.6,0.3-4.1-1.2
									c-0.2-0.7-0.1-1.5,0.1-2.2c1.3-4.9,3.6-8.9,6.2-13.2c0.7-1.1,1.5-2.3,2.6-2.8c1.2-0.6,2.9-0.2,3.3,1c0.2,0.6,0.1,1.2,0,1.8
									c-0.4,2.6-1.3,5.2-2.6,7.5c5.8,3.9,12,7.2,18.5,9.6c-1.9,2.8-3.7,5.8-5.3,8.8C501.9,140.4,489.2,130.1,486.5,127.9z"/>
							</g>
							<g>
								<path class="st20" d="M667.5,155.7c-0.2-0.3-25.3,11.1-28,12c2.4,3.8,4.4,7.9,6.5,11.9c9.2-3.7,18.1-8,26.7-13
									c0.3,3.5,2.9,6.6,6.3,7.4c3.4,0.8,7.2-0.8,9-3.7c2.8-4.6,0.6-10.7-2.4-15.2c-1.8-2.6-3.8-5.1-6-7.4
									c-2.1-2.1-4.5-4.2-7.5-4.8s-6.5,0.6-7.6,3.3C663.2,149.5,665.4,153,667.5,155.7z"/>
							</g>
							<g>
								<path class="st20" d="M536.9,247.1c-9,13.1-19.6,24.3-28.5,37.3c2.3,0.5,4.5,1.3,6.5,2.4c12.7,7-0.1,13.6-9,11.4
									c-8-1.9-16.5-4.2-21.9-10.3c-2.3-2.6-3.7-7.2-0.9-9.2c0.9-0.7,2.1-0.9,3.3-1.1c6.1-0.7,11,3,17.3,2.9
									c7.1-12.4,11.8-25,17.6-38c0.3-0.6,0.6-1.3,1.1-1.6c0.6-0.4,1.4-0.4,2.2-0.3c4.2,0.5,8.2,2.1,11.6,4.6"/>
							</g>
							<g>
								<path class="st20" d="M645.5,193.7c8.2,3,15.5,7.1,23.6,10.1c-0.1-1.3,0.1-2.6,0.4-3.8c2-7.7,7.2-1.8,7.3,3.2
									c0.1,4.5,0,9.3-2.5,13c-1.1,1.6-3.3,2.9-4.8,1.7c-0.5-0.4-0.8-1-1-1.6c-0.9-2.4-1.1-5-0.5-7.5c0.1-0.5,0.3-1,0-1.5
									c-0.2-0.3-0.5-0.4-0.8-0.6c-6.8-3.2-14.6-2.9-22-4.2c-0.4-0.1-0.7-0.1-1-0.4c-0.3-0.3-0.4-0.7-0.4-1.1
									c-0.3-2.3,0-4.6,0.9-6.8"/>
							</g>
							<g>
								<path class="st20" d="M624.6,223.1c9.1,11.2,16.1,23.3,25.1,34.3c1-1.9,2.3-3.6,3.8-5c9.3-9.2,11.8,3.6,7.7,10.7
									c-3.7,6.4-7.8,13.3-14.6,16.4c-13.3,6.2-5.1-9.7-3.2-14c-9.3-9-19.2-17.3-29.7-24.8c2.7-5.3,4.4-13.8,9.2-17.5"/>
							</g>
							<g>
								<path class="st20" d="M572.5,294.4c0.3,0,2.6-27.5,3.1-30.3c-4.5,0.2-9,0-13.5-0.1c-1.3,9.8-1.8,19.8-1.6,29.7
									c-3.2-1.5-7.2-0.6-9.6,1.9c-2.4,2.6-2.8,6.7-1.1,9.7c2.7,4.7,9,5.7,14.5,5.3c3.2-0.3,6.3-0.8,9.3-1.7
									c2.9-0.8,5.9-1.9,7.8-4.2c2-2.3,2.6-5.9,0.8-8.3C580,293.6,575.9,293.8,572.5,294.4z"/>
							</g>
							
								<ellipse transform="matrix(0.7071 -0.7071 0.7071 0.7071 33.274 457.3855)" class="st19" cx="568.8" cy="188.5" rx="90.4" ry="90.4"/>
							<g>
								<path class="st20" d="M655.3,214.5c5.9-19.8,4.8-39.9-2-57.9c-0.5,15.9-4.7,31.7-12.4,45.7c-14.4,26.3-40.2,45.8-69,53.9
									c-19.9,5.6-41.1,5.8-61.3,1.5c9.1,7.7,20,13.7,32.1,17.3C590.5,289.5,640.9,262.4,655.3,214.5z"/>
							</g>
							<g>
								<path class="st20" d="M605.9,281.2c0.1,0.3,0.2,0.5,0.2,0.6c-1.8,0.4-3.8,0.9-5.1,2.2s-1.6,3.9-0.1,5
									c0.7,0.5,1.7,0.6,2.5,0.6c6,0.2,11.2-1,16.9-2.5c1.5-0.4,3-0.9,4-2s1.2-3.1,0-4.1c-0.6-0.4-1.3-0.6-2-0.7
									c-3.1-0.4-6.2-0.2-9.3,0.4c-2.5-7.8-4-15.9-4.6-24.1c-3.8,1.2-7.7,2.2-11.7,2.9C597.1,259.6,604.3,277.4,605.9,281.2z"/>
							</g>
							<g>
								<path class="st20" d="M606.8,151.6c6.3-1.9,12-12.6,4.4-16.8c-4.3-2.3-10,0.4-13.1,3.5c-2.3,2.3-4.1,5.5-3.2,8.6
									C596.1,151.6,602.2,153.1,606.8,151.6z"/>
							</g>
							<g>
								<path class="st20" d="M640.5,216c9.1-2.8,17.5-18.4,6.3-24.4c-6.3-3.4-14.5,0.7-19,5.1c-3.3,3.3-5.9,8-4.7,12.6
									C625,215.9,633.9,218,640.5,216z"/>
							</g>
							<g>
								<path class="st20" d="M564.1,170.5c9.1-2.8,17.5-18.4,6.3-24.4c-6.3-3.4-14.5,0.7-19,5.1c-3.3,3.3-5.9,8-4.7,12.6
									C548.5,170.5,557.4,172.6,564.1,170.5z"/>
							</g>
							<g>
								<path class="st20" d="M496.6,189.7c3.1-1,6-6.3,2.2-8.4c-2.2-1.2-5,0.2-6.5,1.7c-1.2,1.1-2,2.8-1.6,4.3
									C491.2,189.7,494.3,190.4,496.6,189.7z"/>
							</g>
							<g>
								<path class="st20" d="M597.1,119.4c3.1-1,6-6.3,2.2-8.4c-2.2-1.2-5,0.2-6.5,1.7c-1.2,1.1-2,2.8-1.6,4.3
									C591.7,119.4,594.8,120.1,597.1,119.4z"/>
							</g>
							<g>
								<path class="st20" d="M561.3,262.6c3.1-1,6-6.3,2.2-8.4c-2.2-1.2-5,0.2-6.5,1.7c-1.2,1.1-2,2.8-1.6,4.3
									C555.9,262.6,559,263.3,561.3,262.6z"/>
							</g>
							<g>
								<path class="st20" d="M594.9,212.5c3.1-1,6-6.3,2.2-8.4c-2.2-1.2-5,0.2-6.5,1.7c-1.2,1.1-2,2.8-1.6,4.3
									C589.6,212.5,592.6,213.2,594.9,212.5z"/>
							</g>
							<g>
								<path class="st20" d="M519.6,236.5c3.1-1,6-6.3,2.2-8.4c-2.2-1.2-5,0.2-6.5,1.7c-1.2,1.1-2,2.8-1.6,4.3
									C514.2,236.5,517.3,237.2,519.6,236.5z"/>
							</g>
							<g>
								<path class="st20" d="M521.8,221.3c5.4-1.7,10.4-10.9,3.7-14.5c-3.7-2-8.6,0.4-11.3,3c-2,1.9-3.5,4.8-2.8,7.5
									C512.6,221.3,517.9,222.5,521.8,221.3z"/>
							</g>
							<g>
								<path class="st20" d="M617.3,239.3c5.4-1.7,10.4-10.9,3.7-14.5c-3.7-2-8.6,0.4-11.3,3c-2,1.9-3.5,4.8-2.8,7.5
									C608.1,239.3,613.4,240.5,617.3,239.3z"/>
							</g>
							<g>
								<path class="st20" d="M559.8,116.4c-5.4,1.7-10.4,10.9-3.7,14.5c3.7,2,8.6-0.4,11.3-3c2-1.9,3.5-4.8,2.8-7.5
									C569,116.5,563.7,115.2,559.8,116.4z"/>
							</g>
							<g class="st17">
								<path class="st2" d="M501.5,155.1c-1.3,6.7,0,15.2,6.3,17.6c5.3,2.1,11-1.3,15.5-4.8c14-10.9,26.1-24.2,35.6-39.2
									c10.4-16.4-6.2-18-18.5-13.6C521.7,121.8,505.5,134.3,501.5,155.1z"/>
							</g>
						</g>
						<g>
							<path class="st2" d="M545.3,191.5c7.1,3.5,13.1,7.7,18.4,13.6c-13.7,6.9-27.8,13-42.2,18.3c-0.4,0.1-0.8,0.3-1.1,0.1
								c-0.4-0.2-0.5-0.6-0.6-1c-2-8-1-16.4,1.5-24.1c0.7-2.1,1.5-4.1,2.9-5.8c2.5-2.9,6.4-4.2,10.2-4.1S541.9,189.8,545.3,191.5z"
								/>
						</g>
						<circle class="st21" cx="506.9" cy="178.7" r="3.1"/>
						
							<ellipse transform="matrix(0.235 -0.972 0.972 0.235 248.5422 651.4864)" class="st21" cx="538.1" cy="167.9" rx="2.5" ry="3.1"/>
						<g>
							<path class="st21" d="M500.8,170.7c0.5-1.5,5.4-12.6,0.1-10.8c-2.5,0.9-4,7.3-5.1,9.5c-0.4,0.8-0.8,1.7-0.9,2.6
								s0.3,1.9,1.1,2.4c1,0.6,2.4,0.2,3.2-0.7C500.1,172.9,500.4,171.8,500.8,170.7z"/>
						</g>
						<g>
							<path class="st21" d="M532.9,156.4c-2.4-0.3-11.6-2.1-6.8-5.1c1.9-1.1,6.1-0.6,8.2-0.4c1.8,0.2,4.1,0.9,4.2,2.7
								c0.1,1.2-0.9,2.3-2.1,2.6S534.1,156.6,532.9,156.4z"/>
						</g>
					</g>
				</g>
			</g>
			<g>
				<g>
					<g>
						<g>
							<g>
								<path class="st19" d="M748.7,277c-5.1,2.3-10.3,3.7-15.3,6c0.6,0.6,1.1,1.2,1.5,1.9c2.5,4.4-2.5,4-4.8,1.8
									c-2-2-4.2-4.2-4.7-7.1c-1-5.6,4.1-0.9,5.5,0.2c4.3-2.6,8.4-5.5,12.2-8.6c1.7,1.5,4.7,3,5.6,5.2"/>
							</g>
							<g>
								<path class="st19" d="M771,236.5c0.6-6.1,2.2-11.9,2.8-17.9c-0.9,0.3-1.8,0.4-2.7,0.4c-5.6,0-2.5-4.6,0.9-5.5
									c3.1-0.8,6.4-1.6,9.3-0.6c1.3,0.5,2.6,1.8,2,3c-0.2,0.4-0.5,0.7-0.9,1c-1.5,1-3.3,1.6-5.1,1.6c-0.4,0-0.8,0-1,0.3
									c-0.2,0.2-0.2,0.4-0.3,0.6c-1,5.2,0.5,10.5,1,15.8c0,0.3,0,0.5-0.1,0.8c-0.1,0.3-0.4,0.4-0.7,0.5c-1.5,0.6-3.2,0.8-4.8,0.6"
									/>
							</g>
							<g>
								<path class="st19" d="M734.3,249.7c-0.2,0-0.3,0-0.4,0c0.3-1.1,0.6-2.3,0.2-3.4s-1.6-2-2.7-1.4c-0.5,0.2-0.8,0.7-1.1,1.2
									c-1.8,3.2-2.6,6.3-3.5,9.8c-0.2,0.9-0.4,1.9-0.1,2.7c0.3,0.9,1.3,1.6,2.2,1.2c0.4-0.2,0.7-0.5,0.9-0.9
									c1.1-1.6,1.9-3.3,2.4-5.1c4.9,0.9,9.7,2.4,14.2,4.4c0.4-2.4,1-4.8,1.7-7.1C748.4,251.1,736.8,249.9,734.3,249.7z"/>
							</g>
							<g>
								<path class="st19" d="M755.7,228.1c-0.1,0,2.8,6.4,3,7.1c1-0.6,2-1.1,3-1.6c-0.9-2.3-2-4.6-3.3-6.8c0.9-0.1,1.7-0.7,1.9-1.6
									c0.2-0.9-0.2-1.8-0.9-2.3c-1.2-0.7-2.7-0.1-3.9,0.6c-0.7,0.4-1.3,1-1.9,1.5c-0.5,0.5-1.1,1.2-1.2,1.9
									c-0.2,0.7,0.1,1.6,0.8,1.9C754.1,229.2,755,228.6,755.7,228.1z"/>
							</g>
							<g>
								<path class="st19" d="M799.7,230.1c0.1-0.1,0.1-0.2,0.1-0.2c0.6,0.5,1.3,1,2,1s1.6-0.5,1.6-1.3c0-0.4-0.2-0.7-0.5-1
									c-1.5-2-3.2-3.3-5.2-4.7c-0.5-0.4-1.1-0.7-1.7-0.8c-0.6,0-1.3,0.4-1.3,1.1c0,0.3,0.2,0.6,0.3,0.8c0.7,1.1,1.6,2,2.6,2.8
									c-1.8,2.8-4,5.4-6.4,7.8c1.4,0.9,2.7,1.9,4,2.9C795.2,238.5,798.9,231.6,799.7,230.1z"/>
							</g>
							<g>
								<path class="st19" d="M742.4,238.3c-0.1-0.1-0.1-0.1-0.2-0.1c-0.3,0.5-0.6,1.1-1.2,1.4s-1.4,0.1-1.6-0.5
									c-0.1-0.3,0-0.6,0-0.9c0.5-1.9,1.4-3.4,2.4-5.1c0.3-0.4,0.6-0.9,1-1.1c0.5-0.2,1.1-0.1,1.3,0.4c0.1,0.2,0.1,0.5,0,0.7
									c-0.2,1-0.5,2-1,2.9c2.2,1.5,4.6,2.8,7.2,3.7c-0.7,1.1-1.4,2.2-2,3.4C748.3,243.1,743.4,239.1,742.4,238.3z"/>
							</g>
							<g>
								<path class="st20" d="M761.8,284.4c-3.5,5.1-7.6,9.4-11,14.4c0.9,0.2,1.7,0.5,2.5,0.9c4.9,2.7,0,5.3-3.5,4.4
									c-3.1-0.7-6.4-1.6-8.5-4c-0.9-1-1.4-2.8-0.3-3.6c0.4-0.3,0.8-0.4,1.3-0.4c2.4-0.3,4.3,1.1,6.7,1.1c2.7-4.8,4.6-9.7,6.8-14.7
									c0.1-0.2,0.2-0.5,0.4-0.6c0.2-0.2,0.6-0.1,0.8-0.1c1.6,0.2,3.2,0.8,4.5,1.8"/>
							</g>
							<g>
								<path class="st20" d="M795.8,275.1c3.5,4.3,6.2,9,9.7,13.3c0.4-0.7,0.9-1.4,1.5-2c3.6-3.6,4.5,1.4,3,4.1
									c-1.4,2.5-3,5.1-5.6,6.3c-5.1,2.4-2-3.8-1.2-5.4c-3.6-3.5-7.4-6.7-11.5-9.6c1.1-2.1,1.7-5.4,3.5-6.8"/>
							</g>
							<g>
								<path class="st20" d="M775.6,302.7c0.1,0,1-10.6,1.2-11.7c-1.7,0.1-3.5,0-5.2-0.1c-0.5,3.8-0.7,7.6-0.6,11.5
									c-1.2-0.6-2.8-0.2-3.7,0.7c-0.9,1-1.1,2.6-0.4,3.8c1,1.8,3.5,2.2,5.6,2c1.2-0.1,2.4-0.3,3.6-0.6c1.1-0.3,2.3-0.8,3-1.6
									c0.8-0.9,1-2.3,0.3-3.2C778.5,302.4,777,302.5,775.6,302.7z"/>
							</g>
							<circle class="st19" cx="774.2" cy="261.7" r="35"/>
							<g>
								<path class="st20" d="M807.7,271.8c2.3-7.6,1.9-15.5-0.8-22.4c-0.2,6.1-1.8,12.3-4.8,17.7c-5.6,10.2-15.5,17.7-26.7,20.9
									c-7.7,2.2-15.9,2.3-23.7,0.6c3.5,3,7.7,5.3,12.4,6.7C782.6,300.8,802.1,290.3,807.7,271.8z"/>
							</g>
							<g>
								<path class="st20" d="M788.5,297.6c0,0.1,0.1,0.2,0.1,0.2c-0.7,0.2-1.5,0.3-2,0.9c-0.5,0.5-0.6,1.5,0,1.9
									c0.3,0.2,0.6,0.2,1,0.2c2.3,0.1,4.3-0.4,6.5-1c0.6-0.2,1.2-0.3,1.6-0.8c0.4-0.4,0.5-1.2,0-1.6c-0.2-0.2-0.5-0.2-0.8-0.3
									c-1.2-0.1-2.4-0.1-3.6,0.2c-1-3-1.6-6.2-1.8-9.3c-1.5,0.5-3,0.9-4.5,1.1C785.1,289.2,787.9,296.1,788.5,297.6z"/>
							</g>
							<g>
								<path class="st20" d="M788.9,247.5c2.4-0.8,4.7-4.9,1.7-6.5c-1.7-0.9-3.9,0.2-5.1,1.4c-0.9,0.9-1.6,2.1-1.3,3.3
									C784.7,247.4,787.1,248,788.9,247.5z"/>
							</g>
							<g>
								<path class="st20" d="M801.9,272.3c3.5-1.1,6.8-7.1,2.4-9.4c-2.4-1.3-5.6,0.3-7.3,2c-1.3,1.3-2.3,3.1-1.8,4.9
									C795.9,272.3,799.4,273.1,801.9,272.3z"/>
							</g>
							<g>
								<path class="st20" d="M772.4,254.8c3.5-1.1,6.8-7.1,2.4-9.4c-2.4-1.3-5.6,0.3-7.3,2c-1.3,1.3-2.3,3.1-1.8,4.9
									C766.4,254.7,769.8,255.6,772.4,254.8z"/>
							</g>
							<g>
								<path class="st20" d="M746.3,262.2c1.2-0.4,2.3-2.4,0.8-3.2c-0.8-0.4-1.9,0.1-2.5,0.7c-0.4,0.4-0.8,1.1-0.6,1.7
									C744.2,262.2,745.4,262.5,746.3,262.2z"/>
							</g>
							<g>
								<path class="st20" d="M785.1,235c1.2-0.4,2.3-2.4,0.8-3.2c-0.8-0.4-1.9,0.1-2.5,0.7c-0.4,0.4-0.8,1.1-0.6,1.7
									C783.1,235,784.3,235.3,785.1,235z"/>
							</g>
							<g>
								<path class="st20" d="M771.3,290.4c1.2-0.4,2.3-2.4,0.8-3.2c-0.8-0.4-1.9,0.1-2.5,0.7c-0.4,0.4-0.8,1.1-0.6,1.7
									C769.2,290.4,770.4,290.6,771.3,290.4z"/>
							</g>
							<g>
								<path class="st20" d="M784.3,271c1.2-0.4,2.3-2.4,0.8-3.2c-0.8-0.4-1.9,0.1-2.5,0.7c-0.4,0.4-0.8,1.1-0.6,1.7
									C782.2,271,783.4,271.3,784.3,271z"/>
							</g>
							<g>
								<path class="st20" d="M755.2,280.3c1.2-0.4,2.3-2.4,0.8-3.2c-0.8-0.4-1.9,0.1-2.5,0.7c-0.4,0.4-0.8,1.1-0.6,1.7
									C753.1,280.3,754.3,280.5,755.2,280.3z"/>
							</g>
							<g>
								<path class="st20" d="M756,274.4c2.1-0.6,4-4.2,1.5-5.6c-1.4-0.8-3.3,0.1-4.4,1.2c-0.8,0.8-1.4,1.8-1.1,2.9
									C752.5,274.4,754.5,274.9,756,274.4z"/>
							</g>
							<g>
								<path class="st20" d="M793,281.4c2.1-0.6,4-4.2,1.5-5.6c-1.4-0.8-3.3,0.1-4.4,1.2c-0.8,0.8-1.4,1.8-1.1,2.9
									C789.4,281.3,791.4,281.8,793,281.4z"/>
							</g>
							<g>
								<path class="st20" d="M770.7,233.8c-2.1,0.6-4,4.2-1.5,5.6c1.4,0.8,3.3-0.1,4.4-1.2c0.8-0.8,1.4-1.8,1.1-2.9
									C774.3,233.8,772.2,233.4,770.7,233.8z"/>
							</g>
							<g class="st17">
								<path class="st2" d="M748.2,248.8c-0.5,2.6,0,5.9,2.4,6.8c2,0.8,4.3-0.5,6-1.9c5.4-4.2,10.1-9.4,13.8-15.2
									c4-6.3-2.4-7-7.2-5.2C756,235.9,749.7,240.8,748.2,248.8z"/>
							</g>
						</g>
					</g>
				</g>
			</g>
			<g>
				<g>
					<g>
						<g>
							<g>
								<path class="st19" d="M741.2,160.4c-2.1,0.9-4.2,1.5-6.3,2.4c0.2,0.2,0.5,0.5,0.6,0.8c1,1.8-1,1.6-1.9,0.7
									c-0.8-0.8-1.7-1.7-1.9-2.9c-0.4-2.3,1.7-0.4,2.3,0.1c1.7-1,3.4-2.2,5-3.5c0.7,0.6,1.9,1.2,2.3,2.1"/>
							</g>
							<g>
								<path class="st19" d="M750.3,143.9c0.3-2.5,0.9-4.9,1.1-7.3c-0.4,0.1-0.7,0.2-1.1,0.2c-2.3,0-1-1.9,0.4-2.3
									c1.3-0.3,2.6-0.7,3.8-0.2c0.5,0.2,1,0.7,0.8,1.2c-0.1,0.2-0.2,0.3-0.4,0.4c-0.6,0.4-1.3,0.7-2.1,0.7c-0.1,0-0.3,0-0.4,0.1
									c-0.1,0.1-0.1,0.2-0.1,0.3c-0.4,2.1,0.2,4.3,0.4,6.5c0,0.1,0,0.2,0,0.3c-0.1,0.1-0.2,0.2-0.3,0.2c-0.6,0.2-1.3,0.3-2,0.2"/>
							</g>
							<g>
								<path class="st19" d="M735.3,149.3c-0.1,0-0.1,0-0.2,0c0.1-0.5,0.2-0.9,0.1-1.4s-0.7-0.8-1.1-0.6c-0.2,0.1-0.3,0.3-0.4,0.5
									c-0.7,1.3-1.1,2.6-1.4,4c-0.1,0.4-0.2,0.8,0,1.1c0.1,0.4,0.5,0.6,0.9,0.5c0.2-0.1,0.3-0.2,0.4-0.4c0.4-0.6,0.8-1.3,1-2.1
									c2,0.4,4,1,5.8,1.8c0.2-1,0.4-1.9,0.7-2.9C741.1,149.8,736.3,149.4,735.3,149.3z"/>
							</g>
							<g>
								<path class="st19" d="M744.1,140.5c0,0,1.1,2.6,1.2,2.9c0.4-0.2,0.8-0.5,1.2-0.7c-0.4-1-0.8-1.9-1.3-2.8
									c0.4,0,0.7-0.3,0.8-0.7c0.1-0.4-0.1-0.7-0.4-0.9c-0.5-0.3-1.1-0.1-1.6,0.3c-0.3,0.2-0.5,0.4-0.8,0.6
									c-0.2,0.2-0.4,0.5-0.5,0.8c-0.1,0.3,0.1,0.7,0.3,0.8C743.4,140.9,743.8,140.7,744.1,140.5z"/>
							</g>
							<g>
								<path class="st19" d="M762,141.3C762,141.2,762.1,141.2,762,141.3c0.3,0.1,0.6,0.3,0.9,0.3c0.3,0,0.7-0.2,0.7-0.5
									c0-0.1-0.1-0.3-0.2-0.4c-0.6-0.8-1.3-1.3-2.1-1.9c-0.2-0.1-0.4-0.3-0.7-0.3c-0.3,0-0.5,0.2-0.5,0.4c0,0.1,0.1,0.2,0.1,0.3
									c0.3,0.4,0.6,0.8,1,1.2c-0.7,1.2-1.6,2.2-2.6,3.2c0.6,0.4,1.1,0.8,1.6,1.2C760.2,144.7,761.7,141.9,762,141.3z"/>
							</g>
							<g>
								<path class="st19" d="M738.6,144.6C738.6,144.6,738.6,144.6,738.6,144.6c-0.2,0.2-0.3,0.4-0.6,0.5c-0.2,0.1-0.6,0.1-0.6-0.2
									c0-0.1,0-0.2,0-0.4c0.2-0.8,0.6-1.4,1-2.1c0.1-0.2,0.2-0.4,0.4-0.4c0.2-0.1,0.5,0,0.5,0.2c0,0.1,0,0.2,0,0.3
									c-0.1,0.4-0.2,0.8-0.4,1.2c0.9,0.6,1.9,1.1,2.9,1.5c-0.3,0.4-0.6,0.9-0.8,1.4C741,146.6,739,145,738.6,144.6z"/>
							</g>
							<g>
								<path class="st20" d="M767.2,149c0,0-4,1.7-4.4,1.9c0.4,0.6,0.7,1.2,1,1.9c1.5-0.6,2.9-1.3,4.2-2.1c0,0.5,0.5,1,1,1.2
									s1.1-0.1,1.4-0.6c0.4-0.7,0.1-1.7-0.4-2.4c-0.3-0.4-0.6-0.8-0.9-1.2c-0.3-0.3-0.7-0.7-1.2-0.8c-0.5-0.1-1,0.1-1.2,0.5
									C766.5,148,766.9,148.6,767.2,149z"/>
							</g>
							<g>
								<path class="st20" d="M746.6,163.4c-1.4,2.1-3.1,3.8-4.5,5.9c0.4,0.1,0.7,0.2,1,0.4c2,1.1,0,2.1-1.4,1.8
									c-1.3-0.3-2.6-0.7-3.5-1.6c-0.4-0.4-0.6-1.1-0.1-1.5c0.1-0.1,0.3-0.1,0.5-0.2c1-0.1,1.7,0.5,2.7,0.5c1.1-2,1.9-3.9,2.8-6
									c0-0.1,0.1-0.2,0.2-0.3c0.1-0.1,0.2-0.1,0.3,0c0.7,0.1,1.3,0.3,1.8,0.7"/>
							</g>
							<g>
								<path class="st20" d="M763.7,155c1.3,0.5,2.5,1.1,3.7,1.6c0-0.2,0-0.4,0.1-0.6c0.3-1.2,1.1-0.3,1.1,0.5c0,0.7,0,1.5-0.4,2.1
									c-0.2,0.2-0.5,0.5-0.8,0.3c-0.1-0.1-0.1-0.2-0.2-0.3c-0.1-0.4-0.2-0.8-0.1-1.2c0-0.1,0-0.2,0-0.2c0,0-0.1-0.1-0.1-0.1
									c-1.1-0.5-2.3-0.5-3.5-0.7c-0.1,0-0.1,0-0.2-0.1c0,0-0.1-0.1-0.1-0.2c0-0.4,0-0.7,0.1-1.1"/>
							</g>
							<g>
								<path class="st20" d="M760.4,159.6c1.4,1.8,2.5,3.7,4,5.4c0.2-0.3,0.4-0.6,0.6-0.8c1.5-1.5,1.9,0.6,1.2,1.7
									c-0.6,1-1.2,2.1-2.3,2.6c-2.1,1-0.8-1.5-0.5-2.2c-1.5-1.4-3-2.7-4.7-3.9c0.4-0.8,0.7-2.2,1.4-2.8"/>
							</g>
							<g>
								<path class="st20" d="M752.2,170.9c0.1,0,0.4-4.3,0.5-4.8c-0.7,0-1.4,0-2.1,0c-0.2,1.6-0.3,3.1-0.2,4.7
									c-0.5-0.2-1.1-0.1-1.5,0.3c-0.4,0.4-0.4,1.1-0.2,1.5c0.4,0.7,1.4,0.9,2.3,0.8c0.5,0,1-0.1,1.5-0.3c0.5-0.1,0.9-0.3,1.2-0.7
									c0.3-0.4,0.4-0.9,0.1-1.3C753.4,170.8,752.7,170.8,752.2,170.9z"/>
							</g>
							<circle class="st19" cx="751.6" cy="154.2" r="14.3"/>
							<g>
								<path class="st20" d="M765.3,158.3c0.9-3.1,0.8-6.3-0.3-9.1c-0.1,2.5-0.7,5-2,7.2c-2.3,4.2-6.3,7.2-10.9,8.5
									c-3.1,0.9-6.5,0.9-9.7,0.2c1.4,1.2,3.2,2.2,5.1,2.7C755,170.1,763,165.8,765.3,158.3z"/>
							</g>
							<g>
								<path class="st20" d="M757.5,168.8C757.5,168.9,757.5,168.9,757.5,168.8c-0.3,0.2-0.6,0.2-0.8,0.5c-0.2,0.2-0.3,0.6,0,0.8
									c0.1,0.1,0.3,0.1,0.4,0.1c0.9,0,1.8-0.2,2.7-0.4c0.2-0.1,0.5-0.1,0.6-0.3s0.2-0.5,0-0.6c-0.1-0.1-0.2-0.1-0.3-0.1
									c-0.5-0.1-1,0-1.5,0.1c-0.4-1.2-0.6-2.5-0.7-3.8c-0.6,0.2-1.2,0.3-1.8,0.5C756.1,165.4,757.2,168.2,757.5,168.8z"/>
							</g>
							<g>
								<path class="st20" d="M757.6,148.4c1-0.3,1.9-2,0.7-2.6c-0.7-0.4-1.6,0.1-2.1,0.6c-0.4,0.4-0.6,0.9-0.5,1.4
									C755.9,148.4,756.9,148.6,757.6,148.4z"/>
							</g>
							<g>
								<path class="st20" d="M762.9,158.5c1.4-0.4,2.8-2.9,1-3.8c-1-0.5-2.3,0.1-3,0.8c-0.5,0.5-0.9,1.3-0.7,2
									C760.5,158.5,761.9,158.8,762.9,158.5z"/>
							</g>
							<g>
								<path class="st20" d="M750.9,151.4c1.4-0.4,2.8-2.9,1-3.8c-1-0.5-2.3,0.1-3,0.8c-0.5,0.5-0.9,1.3-0.7,2
									C748.4,151.3,749.8,151.7,750.9,151.4z"/>
							</g>
							<g>
								<path class="st20" d="M740.2,154.4c0.5-0.2,1-1,0.3-1.3c-0.3-0.2-0.8,0-1,0.3c-0.2,0.2-0.3,0.4-0.3,0.7
									C739.4,154.4,739.8,154.5,740.2,154.4z"/>
							</g>
							<g>
								<path class="st20" d="M756.1,143.3c0.5-0.2,1-1,0.3-1.3c-0.3-0.2-0.8,0-1,0.3c-0.2,0.2-0.3,0.4-0.3,0.7
									C755.2,143.3,755.7,143.4,756.1,143.3z"/>
							</g>
							<g>
								<path class="st20" d="M750.4,165.9c0.5-0.2,1-1,0.3-1.3c-0.3-0.2-0.8,0-1,0.3c-0.2,0.2-0.3,0.4-0.3,0.7
									C749.6,165.9,750.1,166,750.4,165.9z"/>
							</g>
							<g>
								<path class="st20" d="M755.7,158c0.5-0.2,1-1,0.3-1.3c-0.3-0.2-0.8,0-1,0.3c-0.2,0.2-0.3,0.4-0.3,0.7
									C754.9,158,755.4,158.1,755.7,158z"/>
							</g>
							<g>
								<path class="st20" d="M743.8,161.8c0.5-0.2,1-1,0.3-1.3c-0.3-0.2-0.8,0-1,0.3c-0.2,0.2-0.3,0.4-0.3,0.7
									C743,161.8,743.5,161.9,743.8,161.8z"/>
							</g>
							<g>
								<path class="st20" d="M744.2,159.4c0.9-0.3,1.6-1.7,0.6-2.3c-0.6-0.3-1.4,0.1-1.8,0.5c-0.3,0.3-0.6,0.8-0.4,1.2
									C742.7,159.4,743.6,159.6,744.2,159.4z"/>
							</g>
							<g>
								<path class="st20" d="M759.3,162.2c0.9-0.3,1.6-1.7,0.6-2.3c-0.6-0.3-1.4,0.1-1.8,0.5c-0.3,0.3-0.6,0.8-0.4,1.2
									C757.8,162.2,758.6,162.4,759.3,162.2z"/>
							</g>
							<g>
								<path class="st20" d="M750.2,142.8c-0.9,0.3-1.6,1.7-0.6,2.3c0.6,0.3,1.4-0.1,1.8-0.5c0.3-0.3,0.6-0.8,0.4-1.2
									C751.6,142.8,750.8,142.6,750.2,142.8z"/>
							</g>
							<g class="st17">
								<path class="st2" d="M741,148.9c-0.2,1.1,0,2.4,1,2.8c0.8,0.3,1.7-0.2,2.5-0.8c2.2-1.7,4.1-3.8,5.6-6.2
									c1.6-2.6-1-2.8-2.9-2.1C744.2,143.7,741.6,145.6,741,148.9z"/>
							</g>
						</g>
					</g>
				</g>
			</g>
		</g>
	</g>
</g>
</svg>
